HIERARCHY
ROOT Hips
{
  OFFSET 5.72205e-005 65.662 3.42586
  CHANNELS 6 Xposition Yposition Zposition Zrotation Xrotation Yrotation
  JOINT Chest
  {
    OFFSET 0 8.7983 -4.7612
    CHANNELS 3 Zrotation Xrotation Yrotation
    JOINT Chest2
    {
      OFFSET 0 8.0291 0.4195
      CHANNELS 3 Zrotation Xrotation Yrotation
      JOINT Chest3
      {
        OFFSET 0 9.9351 -2.2114
        CHANNELS 3 Zrotation Xrotation Yrotation
        JOINT Neck
        {
          OFFSET 0 22.3885 -0.4656
          CHANNELS 3 Zrotation Xrotation Yrotation
          JOINT Head
          {
            OFFSET -0.0001 12.643 3.4389
            CHANNELS 3 Zrotation Xrotation Yrotation
            End Site
            {
              OFFSET 0.0001 17.6655 0.5274
            }
          }
        }
        JOINT LeftCollar
        {
          OFFSET 2.2603 21.606 7.4023
          CHANNELS 3 Zrotation Xrotation Yrotation
          JOINT LeftShoulder
          {
            OFFSET 13.5163 -1.1332 -5.0146
            CHANNELS 3 Zrotation Xrotation Yrotation
            JOINT LeftElbow
            {
              OFFSET -0.0995 -28.05 -0.2431
              CHANNELS 3 Zrotation Xrotation Yrotation
              JOINT LeftWrist
              {
                OFFSET 0.0679 -23.3996 -0.1402
                CHANNELS 3 Zrotation Xrotation Yrotation
                JOINT LeftFinger1
                {
                  OFFSET 0.7932 -9.069 2.5189
                  CHANNELS 3 Zrotation Xrotation Yrotation
                  JOINT LeftFinger11
                  {
                    OFFSET -0.8272 -3.3923 0.5977
                    CHANNELS 3 Zrotation Xrotation Yrotation
                    JOINT LeftFinger12
                    {
                      OFFSET -0.5649 -2.3158 0.4082
                      CHANNELS 3 Zrotation Xrotation Yrotation
                      End Site
                      {
                        OFFSET -0.4919 -1.6479 0.2673
                      }
                    }
                  }
                }
                JOINT LeftFinger2
                {
                  OFFSET 0.9159 -9.2044 0.2193
                  CHANNELS 3 Zrotation Xrotation Yrotation
                  JOINT LeftFinger21
                  {
                    OFFSET 0.0117 -4.1944 -0.0248
                    CHANNELS 3 Zrotation Xrotation Yrotation
                    JOINT LeftFinger22
                    {
                      OFFSET 0.0071 -2.3249 -0.0142
                      CHANNELS 3 Zrotation Xrotation Yrotation
                      End Site
                      {
                        OFFSET -0.1475 -2.0882 0.0028
                      }
                    }
                  }
                }
                JOINT LeftFinger3
                {
                  OFFSET 0.6113 -8.7231 -2.0637
                  CHANNELS 3 Zrotation Xrotation Yrotation
                  JOINT LeftFinger31
                  {
                    OFFSET -0.1927 -3.8059 -0.2383
                    CHANNELS 3 Zrotation Xrotation Yrotation
                    JOINT LeftFinger32
                    {
                      OFFSET -0.1091 -2.1688 -0.1362
                      CHANNELS 3 Zrotation Xrotation Yrotation
                      End Site
                      {
                        OFFSET -0.2358 -1.9176 -0.0906
                      }
                    }
                  }
                }
                JOINT LeftFinger4
                {
                  OFFSET -0.6151 -8.0947 -3.5641
                  CHANNELS 3 Zrotation Xrotation Yrotation
                  JOINT LeftFinger41
                  {
                    OFFSET -0.4882 -2.341 -0.6462
                    CHANNELS 3 Zrotation Xrotation Yrotation
                    JOINT LeftFinger42
                    {
                      OFFSET -0.3575 -1.7167 -0.4742
                      CHANNELS 3 Zrotation Xrotation Yrotation
                      End Site
                      {
                        OFFSET -0.4187 -1.5237 -0.3496
                      }
                    }
                  }
                }
                JOINT LeftFinger0
                {
                  OFFSET -1.42 -1.8761 1.4223
                  CHANNELS 3 Zrotation Xrotation Yrotation
                  JOINT LeftFinger01
                  {
                    OFFSET -1.1471 -3.4929 2.6334
                    CHANNELS 3 Zrotation Xrotation Yrotation
                    JOINT LeftFinger02
                    {
                      OFFSET -0.823 -2.3 1.6571
                      CHANNELS 3 Zrotation Xrotation Yrotation
                      End Site
                      {
                        OFFSET -0.5822 -1.6914 1.1582
                      }
                    }
                  }
                }
              }
            }
          }
        }
        JOINT RightCollar
        {
          OFFSET -2.2603 21.606 7.4023
          CHANNELS 3 Zrotation Xrotation Yrotation
          JOINT RightShoulder
          {
            OFFSET -13.5187 -1.1334 -5.0155
            CHANNELS 3 Zrotation Xrotation Yrotation
            JOINT RightElbow
            {
              OFFSET 0.0994 -28.0499 -0.2431
              CHANNELS 3 Zrotation Xrotation Yrotation
              JOINT RightWrist
              {
                OFFSET -0.0679 -23.3996 -0.1402
                CHANNELS 3 Zrotation Xrotation Yrotation
                JOINT RightFinger1
                {
                  OFFSET -0.7932 -9.0691 2.5189
                  CHANNELS 3 Zrotation Xrotation Yrotation
                  JOINT RightFinger11
                  {
                    OFFSET 0.8272 -3.3923 0.5977
                    CHANNELS 3 Zrotation Xrotation Yrotation
                    JOINT RightFinger12
                    {
                      OFFSET 0.565 -2.3158 0.4082
                      CHANNELS 3 Zrotation Xrotation Yrotation
                      End Site
                      {
                        OFFSET 0.4919 -1.6479 0.2673
                      }
                    }
                  }
                }
                JOINT RightFinger2
                {
                  OFFSET -0.916 -9.2044 0.2193
                  CHANNELS 3 Zrotation Xrotation Yrotation
                  JOINT RightFinger21
                  {
                    OFFSET -0.0117 -4.1944 -0.0248
                    CHANNELS 3 Zrotation Xrotation Yrotation
                    JOINT RightFinger22
                    {
                      OFFSET -0.0071 -2.3249 -0.0142
                      CHANNELS 3 Zrotation Xrotation Yrotation
                      End Site
                      {
                        OFFSET 0.1475 -2.0882 0.0028
                      }
                    }
                  }
                }
                JOINT RightFinger3
                {
                  OFFSET -0.6113 -8.7231 -2.0637
                  CHANNELS 3 Zrotation Xrotation Yrotation
                  JOINT RightFinger31
                  {
                    OFFSET 0.1927 -3.8059 -0.2383
                    CHANNELS 3 Zrotation Xrotation Yrotation
                    JOINT RightFinger32
                    {
                      OFFSET 0.1091 -2.1688 -0.1362
                      CHANNELS 3 Zrotation Xrotation Yrotation
                      End Site
                      {
                        OFFSET 0.2358 -1.9176 -0.0906
                      }
                    }
                  }
                }
                JOINT RightFinger4
                {
                  OFFSET 0.6151 -8.0947 -3.564
                  CHANNELS 3 Zrotation Xrotation Yrotation
                  JOINT RightFinger41
                  {
                    OFFSET 0.4882 -2.341 -0.6462
                    CHANNELS 3 Zrotation Xrotation Yrotation
                    JOINT RightFinger42
                    {
                      OFFSET 0.3574 -1.7166 -0.4742
                      CHANNELS 3 Zrotation Xrotation Yrotation
                      End Site
                      {
                        OFFSET 0.4187 -1.5237 -0.3496
                      }
                    }
                  }
                }
                JOINT RightFinger0
                {
                  OFFSET 1.4199 -1.8761 1.4221
                  CHANNELS 3 Zrotation Xrotation Yrotation
                  JOINT RightFinger01
                  {
                    OFFSET 1.1472 -3.4929 2.6336
                    CHANNELS 3 Zrotation Xrotation Yrotation
                    JOINT RightFinger02
                    {
                      OFFSET 0.8229 -2.3 1.6571
                      CHANNELS 3 Zrotation Xrotation Yrotation
                      End Site
                      {
                        OFFSET 0.5822 -1.6914 1.1582
                      }
                    }
                  }
                }
              }
            }
          }
        }
      }
    }
  }
  JOINT RightHip
  {
    OFFSET -9.412 3.9771 -0.7758
    CHANNELS 3 Zrotation Xrotation Yrotation
    JOINT RightKnee
    {
      OFFSET -0.7531 -40.938 0
      CHANNELS 3 Zrotation Xrotation Yrotation
      JOINT RightAnkle
      {
        OFFSET 0 -40.1986 0
        CHANNELS 3 Zrotation Xrotation Yrotation
        JOINT RightToe
        {
          OFFSET 0 -4.4182 9.239
          CHANNELS 3 Zrotation Xrotation Yrotation
          End Site
          {
            OFFSET 0 0 6.1981
          }
        }
      }
    }
  }
  JOINT LeftHip
  {
    OFFSET 9.4119 3.9773 -0.7758
    CHANNELS 3 Zrotation Xrotation Yrotation
    JOINT LeftKnee
    {
      OFFSET 0.7532 -40.9383 0
      CHANNELS 3 Zrotation Xrotation Yrotation
      JOINT LeftAnkle
      {
        OFFSET 0 -40.1986 0
        CHANNELS 3 Zrotation Xrotation Yrotation
        JOINT LeftToe
        {
          OFFSET 0 -4.4182 9.239
          CHANNELS 3 Zrotation Xrotation Yrotation
          End Site
          {
            OFFSET 0 0 6.1981
          }
        }
      }
    }
  }
}
MOTION
Frames:	4
Frame Time:	0.0333333
39.7987 43.0804 18.8487 -179.995 58.9947 -0.00885825 -0.0295699 9.08996 -0.0834111 -0.0464324 18.18 -0.165185 -0.0464325 18.1801 -0.165186 2.88739 -0.000589342 -0.562283 2.98749e-007 0.0604723 3.02776e-007 -12.1076 -4.17889 -16.5663 41.709 12.6647 -35.4611 0.40137 -14.9348 -35.8695 2.59301 -0.514154 7.77403 -7.95139e-016 -3.18055e-015 -1.19271e-015 -1.59028e-015 0 -1.98785e-015 -2.38542e-015 3.18055e-015 -2.78299e-015 -7.95139e-016 -3.18055e-015 -1.19271e-015 -0.012867 0.0023223 9.03403e-005 -0 0 1.98785e-015 -7.95139e-016 -3.18055e-015 -1.19271e-015 -0.0160761 0.00300117 0.000858335 -2.38542e-015 3.18055e-015 -1.19271e-015 -7.95139e-016 -3.18055e-015 -1.19271e-015 -0.0125184 0.00308888 0.00281853 -2.38542e-015 0 -7.95139e-016 -7.95139e-016 -3.18055e-015 -1.19271e-015 -1.59028e-015 0 -1.98785e-015 -2.38542e-015 3.18055e-015 -2.78299e-015 5.3772 -5.30853 10.2049 -35.0531 8.36253 39.051 1.56687 -19.31 36.2429 -2.32062 5.74379 -5.73714 -3.97569e-015 0 1.31198e-014 -4.77083e-015 -6.36111e-015 1.27222e-014 -2.38542e-015 0 1.03368e-014 -3.97569e-015 0 1.31198e-014 0.0129525 0.0023091 -7.8997e-005 7.95139e-016 -6.36111e-015 1.59028e-015 -3.97569e-015 0 1.31198e-014 0.0163624 0.00304569 -0.000880343 -7.95139e-016 0 -0 -3.97569e-015 0 1.31198e-014 0.0146142 0.00366925 -0.00326212 -5.56597e-015 9.54166e-015 1.11319e-014 -3.97569e-015 0 1.31198e-014 -4.77083e-015 -6.36111e-015 1.27222e-014 -2.38542e-015 0 1.03368e-014 -52.4506 -73.044 -82.2764 -1.58142 35.2908 42.1924 -23.3776 -2.6129 -7.02178 -2.77346e-008 1.71249e-009 4.25101e-007 54.9693 -71.2962 84.6202 1.57934 35.0896 -42.2114 20.9063 -2.75296 5.80703 -4.26477e-006 -1.32716e-006 -1.75944e-007 
39.8009 43.0805 18.8481 -179.995 58.9947 -0.00885826 -0.0293866 9.03477 -0.0834897 -0.0461233 18.0696 -0.165367 -0.0461233 18.0697 -0.165368 3.03435 0.350824 -0.599863 -1.60708e-007 0.0601648 6.19691e-007 -12.3879 -4.01854 -16.4598 41.9267 12.7067 -35.4961 0.401424 -14.9348 -35.8695 2.5296 -0.582047 7.64497 1.59028e-015 -3.18055e-015 1.59028e-015 -7.95139e-016 9.54166e-015 1.98785e-016 1.59028e-015 0 1.78906e-015 1.59028e-015 -3.18055e-015 1.59028e-015 -0.0128587 0.00233165 9.37087e-005 -8.82781e-032 3.18055e-015 1.59028e-015 1.59028e-015 -3.18055e-015 1.59028e-015 -0.0161012 0.00300252 0.000859452 -1.59028e-015 6.36111e-015 7.95139e-016 1.59028e-015 -3.18055e-015 1.59028e-015 -0.0125711 0.00310876 0.00282104 5.56597e-015 -1.90833e-014 -1.05356e-014 1.59028e-015 -3.18055e-015 1.59028e-015 -7.95139e-016 9.54166e-015 1.98785e-016 1.59028e-015 0 1.78906e-015 5.62548 -5.11757 10.1094 -35.241 8.38446 39.0649 1.56674 -19.3101 36.2429 -2.28156 5.67793 -5.61089 -4.77083e-015 -1.59028e-014 1.35174e-014 -4.77083e-015 -1.59028e-014 1.03368e-014 -6.36111e-015 -2.54444e-014 1.03368e-014 -4.77083e-015 -1.59028e-014 1.35174e-014 0.0129315 0.00232432 -8.24676e-005 7.95139e-016 -9.54166e-015 3.97569e-016 -4.77083e-015 -1.59028e-014 1.35174e-014 0.0163062 0.00304201 -0.000873923 -7.95139e-016 -9.54166e-015 3.97569e-016 -4.77083e-015 -1.59028e-014 1.35174e-014 0.0145818 0.00368778 -0.00325988 7.95139e-016 3.18055e-015 -7.95139e-016 -4.77083e-015 -1.59028e-014 1.35174e-014 -4.77083e-015 -1.59028e-014 1.03368e-014 -6.36111e-015 -2.54444e-014 1.03368e-014 -52.6242 -72.9363 -82.4388 -1.58101 35.2783 42.193 -23.2456 -2.62138 -6.95798 -2.23633e-015 7.95139e-016 7.95139e-016 54.9929 -71.2808 84.6414 1.57933 35.0882 -42.2118 20.9037 -2.75237 5.80665 -5.92356e-006 -9.83486e-007 8.40147e-008 
39.8032 43.0806 18.8475 -179.995 58.9947 -0.00885824 -0.0292036 8.97957 -0.083568 -0.045815 17.9592 -0.165548 -0.045815 17.9593 -0.165549 3.18161 0.702297 -0.638365 5.48714e-007 0.059836 2.51585e-007 -12.6683 -3.85873 -16.3525 42.1447 12.7481 -35.5312 0.401046 -14.9347 -35.8695 2.46603 -0.649769 7.51585 -1.59028e-015 -1.59028e-014 -1.98785e-016 -2.38542e-015 -1.90833e-014 -5.96354e-016 -1.59028e-015 -1.59028e-014 -1.78906e-015 -1.59028e-015 -1.59028e-014 -1.98785e-016 -0.0128258 0.00231466 8.48215e-005 -1.59028e-015 -3.18055e-015 -3.37934e-015 -1.59028e-015 -1.59028e-014 -1.98785e-016 -0.0160908 0.00299407 0.000862371 -1.59028e-015 0 -2.78299e-015 -1.59028e-015 -1.59028e-014 -1.98785e-016 -0.0126123 0.00312802 0.00284011 7.95139e-016 -6.36111e-015 2.38542e-015 -1.59028e-015 -1.59028e-014 -1.98785e-016 -2.38542e-015 -1.90833e-014 -5.96354e-016 -1.59028e-015 -1.59028e-014 -1.78906e-015 5.87399 -4.92696 10.0131 -35.4293 8.40581 39.0787 1.56717 -19.31 36.2429 -2.24234 5.61223 -5.48463 2.38542e-015 -1.27222e-014 -1.19271e-015 1.59028e-015 -9.54166e-015 3.97569e-016 7.95139e-016 -9.54166e-015 1.98785e-015 2.38542e-015 -1.27222e-014 -1.19271e-015 0.0129835 0.00233481 -8.95589e-005 1.59028e-015 0 7.95139e-016 2.38542e-015 -1.27222e-014 -1.19271e-015 0.0163141 0.00303063 -0.000872134 -1.59028e-015 6.36111e-015 1.19271e-015 2.38542e-015 -1.27222e-014 -1.19271e-015 0.0145821 0.00368305 -0.0032678 -1.59028e-015 -3.18055e-015 7.95139e-016 2.38542e-015 -1.27222e-014 -1.19271e-015 1.59028e-015 -9.54166e-015 3.97569e-016 7.95139e-016 -9.54166e-015 1.98785e-015 -52.7961 -72.8284 -82.5994 -1.58055 35.2658 42.1935 -23.1135 -2.62962 -6.89414 1.64894e-006 -7.05086e-008 -2.82968e-007 55.0164 -71.2654 84.6626 1.57929 35.0868 -42.2121 20.901 -2.75176 5.80621 -3.8763e-015 -4.27205e-007 -0 
39.8054 43.0807 18.847 -179.995 58.9947 -0.00885826 -0.0290204 8.92442 -0.0836456 -0.045507 17.8488 -0.165728 -0.0455072 17.8489 -0.165728 3.32918 1.0538 -0.677788 2.49927e-007 0.059556 7.27607e-007 -12.949 -3.69945 -16.2444 42.3624 12.7901 -35.5664 0.401361 -14.9349 -35.8695 2.40232 -0.717329 7.38663 -0 0 1.98785e-016 7.95139e-016 3.18055e-015 9.93923e-016 0 0 -7.95139e-016 -0 0 1.98785e-016 -0.0128437 0.00233492 8.96036e-005 7.95139e-016 -6.36111e-015 -0 -0 0 1.98785e-016 -0.0160059 0.00297518 0.00085815 1.59028e-015 6.36111e-015 -0 -0 0 1.98785e-016 -0.0125988 0.00312861 0.00283078 -7.95139e-016 3.18055e-015 -1.78906e-015 -0 0 1.98785e-016 7.95139e-016 3.18055e-015 9.93923e-016 0 0 -7.95139e-016 6.12275 -4.73683 9.91599 -35.6174 8.42744 39.0927 1.56726 -19.31 36.2429 -2.20299 5.5465 -5.35833 7.95139e-016 0 -0 1.59028e-015 0 3.97569e-016 1.59028e-015 0 -2.38542e-015 7.95139e-016 0 -0 0.0129239 0.00231243 -8.36355e-005 7.95139e-016 3.18055e-015 1.59028e-015 7.95139e-016 0 -0 0.0162916 0.00303768 -0.000867295 1.59028e-015 -1.27222e-014 1.19271e-015 7.95139e-016 0 -0 0.0145524 0.00367166 -0.00325647 -7.95139e-016 -9.54166e-015 -2.78299e-015 7.95139e-016 0 -0 1.59028e-015 0 3.97569e-016 1.59028e-015 0 -2.38542e-015 -52.9655 -72.7203 -82.7576 -1.58015 35.2533 42.194 -22.9814 -2.63781 -6.83033 -2.87512e-008 1.18514e-009 4.25013e-007 55.0401 -71.2499 84.684 1.57918 35.0854 -42.2124 20.8984 -2.75112 5.80579 2.18663e-015 -7.40137e-010 -7.95139e-016 
